<?xml version="1.0" standalone="no"?>
<!DOCTYPE svg PUBLIC "-//W3C//DTD SVG 20010904//EN"
 "http://www.w3.org/TR/2001/REC-SVG-20010904/DTD/svg10.dtd">
<svg version="1.0" xmlns="http://www.w3.org/2000/svg"
 width="495.000000pt" height="498.000000pt" viewBox="0 0 495.000000 498.000000"
 preserveAspectRatio="xMidYMid meet">

<g transform="translate(0.000000,498.000000) scale(0.100000,-0.100000)"
fill="#000000" stroke="none">
<path d="M1340 4749 c-246 -24 -461 -99 -636 -225 -204 -145 -367 -364 -437
-590 -58 -184 -58 -185 -54 -1529 3 -1212 3 -1231 24 -1322 101 -437 412 -759
838 -867 174 -44 230 -48 756 -43 l494 4 101 35 c56 19 110 41 120 47 19 12
19 12 0 7 -33 -11 -149 -25 -158 -20 -4 3 -8 11 -7 17 0 9 2 9 5 1 4 -9 14 -9
39 -1 19 5 32 13 30 17 -2 3 60 20 138 38 377 85 887 274 1090 404 26 17 49
29 51 27 12 -12 -295 -211 -492 -319 -152 -84 -302 -152 -462 -210 -63 -23
-117 -44 -120 -47 -2 -2 135 -3 305 -1 l310 3 148 78 c82 44 150 77 153 75 4
-5 -175 -127 -211 -144 -37 -17 269 -16 388 1 311 45 583 208 771 459 54 73
127 217 159 316 52 161 52 162 52 955 l0 740 -47 97 c-114 238 -233 357 -472
473 -129 63 -224 86 -386 92 -148 6 -248 -8 -375 -50 l-70 -24 130 1 c328 1
601 -131 761 -369 l34 -50 0 -214 c0 -118 -3 -212 -6 -208 -3 3 -21 40 -39 81
-149 344 -492 575 -853 576 -369 0 -660 -177 -758 -460 -85 -248 13 -508 234
-617 74 -37 79 -38 186 -38 104 0 115 2 178 32 171 81 266 236 256 417 -7 133
-71 227 -192 282 -51 23 -68 26 -130 22 -102 -7 -194 -59 -239 -136 l-17 -31
45 26 c49 27 138 40 197 29 44 -8 113 -66 138 -117 27 -52 27 -167 1 -225 -26
-58 -11 -75 23 -26 29 43 46 91 46 137 1 26 2 28 11 11 6 -10 9 -48 7 -86 -3
-53 -10 -78 -34 -116 -73 -119 -239 -172 -395 -124 -63 19 -81 30 -134 83 -88
88 -109 146 -110 297 0 109 2 118 33 184 63 133 199 239 363 283 91 24 260 21
362 -6 157 -41 324 -152 414 -274 104 -142 143 -264 143 -447 0 -147 -24 -248
-90 -385 -179 -369 -571 -598 -1214 -710 -463 -80 -1090 -4 -1546 187 -98 41
-304 146 -352 179 -14 11 -36 19 -48 19 -11 0 -19 4 -15 9 3 5 -13 22 -36 38
-23 15 -56 41 -75 57 l-34 28 0 1023 c0 1107 1 1125 54 1257 76 188 236 350
424 429 141 59 149 59 986 59 l764 0 191 196 c105 108 191 200 191 205 0 11
-1782 9 -1900 -2z m2818 -2606 c-5 -121 -10 -164 -32 -236 -32 -107 -79 -202
-139 -282 -73 -97 -223 -235 -322 -296 -96 -59 -142 -82 -115 -56 8 8 60 50
115 94 181 145 284 265 361 418 55 111 99 282 109 423 5 68 11 100 18 93 6 -6
8 -66 5 -158z m162 -5 c-1 -120 -21 -284 -45 -356 -32 -94 -97 -224 -171 -340
-58 -90 -242 -284 -283 -297 -11 -3 -21 -11 -21 -16 0 -6 -4 -8 -8 -5 -5 3
-20 -6 -34 -19 -161 -149 -660 -362 -1038 -443 -229 -50 -348 -57 -930 -57
-539 0 -546 0 -625 23 -166 47 -329 170 -420 316 -70 113 -105 233 -112 384
l-6 127 44 -36 c69 -57 234 -162 349 -223 312 -164 620 -265 970 -317 170 -26
506 -36 686 -21 418 36 830 187 1115 412 90 71 221 212 295 318 96 137 164
304 193 477 18 107 21 115 31 115 6 0 10 -19 10 -42z m-5 -494 c-84 -223 -269
-459 -492 -628 -114 -86 -289 -190 -308 -183 -8 4 -14 1 -12 -6 1 -7 -6 -11
-15 -11 -10 1 -15 -3 -11 -9 4 -6 0 -8 -10 -4 -9 3 -27 -3 -41 -14 -16 -13
-27 -16 -31 -9 -8 14 -17 7 90 65 179 96 395 279 595 505 81 91 126 152 195
268 33 55 61 99 63 97 1 -1 -9 -33 -23 -71z m-3495 -214 c0 -5 -5 -10 -11 -10
-5 0 -7 5 -4 10 3 6 8 10 11 10 2 0 4 -4 4 -10z m2710 -175 c0 -2 -10 -9 -22
-15 -22 -11 -22 -10 -4 4 21 17 26 19 26 11z m-154 -500 c-26 -19 -47 -19 -40
0 4 8 18 15 33 15 25 -1 25 -1 7 -15z m-103 -29 c-24 -20 -118 -67 -101 -51
10 11 113 73 121 74 5 1 -4 -10 -20 -23z m-413 -66 c-20 -13 -33 -13 -25 0 3
6 14 10 23 10 15 0 15 -2 2 -10z"/>
<path d="M1110 845 c0 -17 73 -55 105 -55 17 1 14 6 -17 35 -40 37 -88 48 -88
20z"/>
<path d="M1477 785 c42 -19 164 -50 283 -72 134 -25 491 -25 604 0 44 9 82 20
85 23 3 3 -35 2 -84 -2 -50 -3 -166 -1 -260 5 -183 12 -594 48 -635 56 -20 3
-19 2 7 -10z"/>
<path d="M3375 4613 c-451 -482 -565 -605 -701 -753 -83 -91 -165 -181 -182
-201 l-31 -35 156 -145 c86 -79 188 -174 228 -211 l73 -68 403 413 c222 226
517 526 656 666 139 140 253 258 253 261 0 9 -99 66 -181 104 -134 62 -275 96
-455 111 l-81 7 -138 -149z"/>
<path d="M4237 4262 c-75 -75 -137 -141 -137 -145 0 -4 25 -37 54 -72 30 -35
73 -101 95 -147 54 -115 71 -205 71 -386 l0 -149 84 -41 c60 -30 106 -63 158
-113 73 -70 73 -70 18 -31 -47 34 -112 72 -122 72 -2 0 27 -31 63 -70 36 -38
100 -115 143 -171 l76 -101 0 375 c0 213 -5 409 -11 453 -31 221 -134 442
-289 617 -23 26 -47 47 -53 47 -7 0 -74 -62 -150 -138z"/>
<path d="M3900 3645 c-29 -35 44 -108 140 -140 107 -36 132 4 52 84 -65 65
-161 93 -192 56z"/>
<path d="M2335 3500 l-50 -51 55 -52 c31 -29 135 -127 231 -219 l176 -167 51
52 c29 29 52 55 52 58 0 7 -447 423 -458 427 -4 1 -30 -21 -57 -48z"/>
<path d="M2158 3316 l-47 -53 200 -189 c110 -104 216 -202 235 -218 l34 -30
55 54 55 54 -108 100 c-59 55 -162 153 -228 218 -67 65 -128 118 -135 117 -8
0 -35 -24 -61 -53z"/>
<path d="M1983 3119 c-54 -53 -63 -66 -63 -97 0 -29 8 -43 43 -76 233 -221
336 -315 355 -325 37 -19 62 -7 132 64 l65 66 -45 42 c-26 23 -128 119 -229
212 -100 94 -185 171 -189 172 -4 2 -35 -25 -69 -58z"/>
<path d="M1922 2806 c-30 -39 -46 -53 -59 -50 -35 9 -168 -14 -218 -37 -104
-49 -153 -124 -205 -309 -55 -202 -134 -364 -233 -484 -46 -55 -42 -54 88 27
149 94 272 139 449 167 202 31 288 77 340 182 21 42 26 67 26 127 0 84 21 143
65 187 l26 26 -37 41 c-54 62 -177 176 -190 177 -7 0 -30 -24 -52 -54z m118
-145 c-23 -41 -239 -251 -278 -271 -24 -12 -46 -20 -48 -18 -5 6 137 171 224
260 71 72 77 76 94 61 12 -11 15 -20 8 -32z"/>
<path d="M3536 2689 c81 -89 125 -213 126 -349 1 -127 -15 -197 -69 -309 -37
-77 -59 -108 -126 -176 -130 -131 -264 -208 -482 -278 -199 -64 -320 -82 -649
-97 -121 -6 -222 -12 -224 -15 -3 -3 6 -5 19 -6 13 0 49 -8 79 -19 l55 -18
-43 -1 c-215 -5 -676 105 -924 222 -54 25 -98 44 -98 42 0 -2 44 -29 98 -59
189 -107 439 -197 655 -236 382 -68 776 -67 1042 5 136 36 144 37 100 16 -49
-24 -40 -25 35 -6 75 20 153 54 247 111 301 182 456 401 470 664 11 200 -56
332 -236 469 -97 74 -113 82 -75 40z"/>
<path d="M3157 1780 c-77 -33 -214 -72 -327 -92 -49 -8 -158 -13 -310 -12
-244 0 -366 12 -549 55 -90 21 -115 19 -131 -11 -26 -49 29 -89 185 -129 375
-99 759 -50 1087 138 69 39 129 81 118 80 -3 0 -36 -13 -73 -29z"/>
<path d="M1131 1486 c-25 -30 38 -92 104 -103 33 -5 35 -4 35 22 0 60 -106
121 -139 81z"/>
<path d="M1624 1324 c10 -7 73 -31 141 -53 140 -46 298 -68 380 -54 48 8 43
10 -145 42 -107 19 -240 44 -294 56 -65 15 -93 18 -82 9z"/>
</g>
</svg>
